<svg xmlns="http://www.w3.org/2000/svg" version="1.1" xmlns:xlink="http://www.w3.org/1999/xlink" xmlns:svgjs="http://svgjs.dev/svgjs" viewBox="0 0 8.027771467553876 1.7057340028002825"><g transform="matrix(1,0,0,1,0.28965664993276974,0.31586700140014135)"><g><path d=" M 0.9067500000000001 0.6232499999999999 Q 0.9615 0.6944999999999999 0.9615 0.7859999999999998 Q 0.9615 0.9209999999999998 0.8685 0.9974999999999998 Q 0.7755 1.0739999999999998 0.6075 1.0739999999999998 L 0.084 1.0739999999999998 L 0.084 0.016499999999999737 L 0.591 0.016499999999999737 Q 0.753 0.016499999999999737 0.8452500000000001 0.0884999999999998 Q 0.9375 0.16049999999999986 0.9375 0.2909999999999998 Q 0.9375 0.3839999999999998 0.88875 0.4462499999999998 Q 0.84 0.5084999999999998 0.759 0.5309999999999998 Q 0.852 0.5519999999999998 0.9067500000000001 0.6232499999999999 M 0.378 0.4364999999999998 L 0.5265 0.4364999999999998 Q 0.6375000000000001 0.4364999999999998 0.6375000000000001 0.34499999999999986 Q 0.6375000000000001 0.25049999999999983 0.5265 0.25049999999999983 L 0.378 0.25049999999999983 L 0.378 0.4364999999999998 M 0.66 0.7439999999999998 Q 0.66 0.6959999999999998 0.63075 0.6704999999999999 Q 0.6015 0.6449999999999998 0.5475 0.6449999999999998 L 0.378 0.6449999999999998 L 0.378 0.8369999999999999 L 0.549 0.8369999999999999 Q 0.66 0.8369999999999999 0.66 0.7439999999999998 M 1.3995307617187502 0.8489999999999999 L 1.7280307617187503 0.8489999999999999 L 1.7280307617187503 1.0739999999999998 L 1.1055307617187502 1.0739999999999998 L 1.1055307617187502 0.016499999999999737 L 1.3995307617187502 0.016499999999999737 L 1.3995307617187502 0.8489999999999999 M 2.091072509765625 1.0147499999999998 Q 1.966572509765625 0.9449999999999998 1.893822509765625 0.8212499999999998 Q 1.821072509765625 0.6974999999999998 1.821072509765625 0.5414999999999999 Q 1.821072509765625 0.38549999999999984 1.893822509765625 0.2617499999999998 Q 1.966572509765625 0.1379999999999998 2.091072509765625 0.06899999999999973 Q 2.215572509765625 -2.220446049250313e-16 2.364072509765625 -2.220446049250313e-16 Q 2.514072509765625 -2.220446049250313e-16 2.637822509765625 0.06899999999999973 Q 2.761572509765625 0.1379999999999998 2.833572509765625 0.2617499999999998 Q 2.905572509765625 0.38549999999999984 2.905572509765625 0.5414999999999999 Q 2.905572509765625 0.6974999999999998 2.833572509765625 0.8212499999999998 Q 2.761572509765625 0.9449999999999998 2.637072509765625 1.0147499999999998 Q 2.512572509765625 1.0844999999999998 2.364072509765625 1.0844999999999998 Q 2.215572509765625 1.0844999999999998 2.091072509765625 1.0147499999999998 M 2.541822509765625 0.7379999999999998 Q 2.607072509765625 0.6644999999999999 2.607072509765625 0.5414999999999999 Q 2.607072509765625 0.41549999999999987 2.541822509765625 0.3427499999999998 Q 2.4765725097656253 0.2699999999999998 2.364072509765625 0.2699999999999998 Q 2.250072509765625 0.2699999999999998 2.185572509765625 0.3427499999999998 Q 2.121072509765625 0.41549999999999987 2.121072509765625 0.5414999999999999 Q 2.121072509765625 0.6659999999999998 2.185572509765625 0.7387499999999998 Q 2.250072509765625 0.8114999999999999 2.364072509765625 0.8114999999999999 Q 2.4765725097656253 0.8114999999999999 2.541822509765625 0.7379999999999998 M 3.727553466796875 0.3644999999999998 Q 3.702053466796875 0.3224999999999998 3.657803466796875 0.2999999999999998 Q 3.613553466796875 0.27749999999999986 3.553553466796875 0.27749999999999986 Q 3.442553466796875 0.27749999999999986 3.378803466796875 0.3494999999999998 Q 3.3150534667968747 0.4214999999999999 3.3150534667968747 0.5429999999999998 Q 3.3150534667968747 0.6794999999999998 3.383303466796875 0.7507499999999998 Q 3.451553466796875 0.8219999999999998 3.582053466796875 0.8219999999999998 Q 3.7365534667968747 0.8219999999999998 3.802553466796875 0.6824999999999999 L 3.507053466796875 0.6824999999999999 L 3.507053466796875 0.47099999999999986 L 4.056053466796875 0.47099999999999986 L 4.056053466796875 0.7559999999999998 Q 4.021553466796875 0.8399999999999999 3.954803466796875 0.9134999999999999 Q 3.888053466796875 0.9869999999999999 3.786053466796875 1.03425 Q 3.684053466796875 1.0815 3.553553466796875 1.0815 Q 3.394553466796875 1.0815 3.272303466796875 1.0132499999999998 Q 3.1500534667968747 0.9449999999999998 3.083303466796875 0.8227499999999999 Q 3.016553466796875 0.7004999999999999 3.016553466796875 0.5429999999999998 Q 3.016553466796875 0.3869999999999998 3.083303466796875 0.2647499999999998 Q 3.1500534667968747 0.14249999999999985 3.271553466796875 0.07424999999999982 Q 3.393053466796875 0.005999999999999783 3.552053466796875 0.005999999999999783 Q 3.751553466796875 0.005999999999999783 3.882053466796875 0.10199999999999987 Q 4.012553466796875 0.19799999999999984 4.044053466796875 0.3644999999999998 L 3.727553466796875 0.3644999999999998 M 4.497082031250001 0.8489999999999999 L 4.825582031250001 0.8489999999999999 L 4.825582031250001 1.0739999999999998 L 4.20308203125 1.0739999999999998 L 4.20308203125 0.016499999999999737 L 4.497082031250001 0.016499999999999737 L 4.497082031250001 0.8489999999999999 M 5.916123779296875 0.016499999999999737 L 5.544123779296875 0.7379999999999998 L 5.544123779296875 1.0739999999999998 L 5.248623779296875 1.0739999999999998 L 5.248623779296875 0.7379999999999998 L 4.876623779296875 0.016499999999999737 L 5.212623779296875 0.016499999999999737 L 5.398623779296875 0.4244999999999999 L 5.584623779296875 0.016499999999999737 L 5.916123779296875 0.016499999999999737" fill="#fcf7ee" fill-rule="nonzero"></path></g><g></g><g clip-path="url(&quot;#SvgjsClipPath1001&quot;)"><g clip-path="url(&quot;#SvgjsClipPath1000&quot;)"><path d=" M 6.860182797084562 0.5119316728235898 C 6.856696122916716 0.44790125043950463 6.832517658502308 0.3855645445392303 6.784097876913351 0.33717453531034025 C 6.735608626484237 0.2904617023652244 6.673354621584149 0.264506820466819 6.611087384524032 0.26279656378297017 C 6.612741404527753 0.32505387672306596 6.638752523106286 0.3873575022232652 6.685465356051402 0.43578059185222995 C 6.733888445680367 0.48420037344118716 6.796142450580454 0.5084449986557441 6.86017287296454 0.5119316728235898 Z M 6.910382304197524 0.5620650191364029 C 6.913802817565221 0.6260987495604955 6.938047442779777 0.6884321474207623 6.986536693208891 0.7368420048896972 C 7.032488949230962 0.7829551858987683 7.094440816691393 0.8095914559996039 7.159520721278151 0.8112166683770599 C 7.157860070536712 0.746136119813468 7.131228397293162 0.6841882230585488 7.08514274975078 0.6382061759877399 C 7.036670039521704 0.589783086358776 6.974349873821468 0.5655384611442194 6.910382304197524 0.5620517869763734 Z M 6.860182797084562 0.5620650191364029 C 6.856696122916716 0.6260987495604955 6.832517658502308 0.6884321474207623 6.784097876913351 0.7368420048896972 C 6.738122106289632 0.7829364639146585 6.676170062361258 0.8095687354948049 6.611087384524032 0.8112166683770599 C 6.612741404527753 0.7489626634769719 6.638752523106286 0.6866424977767349 6.685465356051402 0.6382061759877407 C 6.733888445680367 0.589783086358776 6.796142450580454 0.5655384611442194 6.86017287296454 0.5620517869763734 Z M 6.910382304197524 0.5119316728235898 C 6.913802817565221 0.44790125043950463 6.938047442779777 0.3855645445392303 6.986536693208891 0.33717453531034025 C 7.034959782837856 0.2904617023652244 7.097197247537906 0.264506820466819 7.159520721278151 0.26279656378297017 C 7.157857384449646 0.32786877408447046 7.13122560236637 0.389807448194893 7.085142749750782 0.43578059185222834 C 7.036670039521704 0.48420037344118716 6.974349873821468 0.5084449986557441 6.910382304197524 0.5119316728235898 Z M 6.47438263121641 0.434067027128374 C 6.452309349387986 0.44816684520528616 6.4256171830088356 0.45312802919629075 6.399951731048921 0.44790125043950463 C 6.373996849150515 0.44441457627165865 6.351528641419955 0.42887009627667916 6.335921308664836 0.40982570995382456 C 6.358439136995506 0.3959914866426939 6.384394018893912 0.38908429910715103 6.4102959721521975 0.394277921918838 C 6.435858174018199 0.3991176280619361 6.458703010658233 0.413300719651328 6.474379323176402 0.43406371908836655 Z M 6.47438263121641 0.6399296648316191 C 6.452307977763918 0.6258332938355293 6.4256167755549125 0.6208734753272693 6.399951731048921 0.6260987495604955 C 6.374426036597684 0.6309810288799451 6.351618325328846 0.6451571706592897 6.33594115690488 0.6658845467300244 C 6.3584589852355515 0.6780085133573062 6.384413867133957 0.6849322410928869 6.410315820392243 0.6797154620011475 C 6.435883646512926 0.6748817178139682 6.458731898775752 0.660691787864863 6.474399171416447 0.6399164326715895 Z M 7.2962023183057205 0.434067027128374 C 7.318312364691273 0.4480202615554633 7.344928512737946 0.4529710568733113 7.370576981793082 0.44790125043950463 C 7.3965318636914885 0.44441457627165865 7.41904969202216 0.42887009627667916 7.434541243377019 0.40982570995382456 C 7.412777261186028 0.3950209817740527 7.38603860414867 0.3894313501379015 7.360166579889657 0.394277921918838 C 7.334640868634727 0.3991277424187225 7.311836921857289 0.41331180674910384 7.2962023183057205 0.43406371908836655 Z M 7.2962023183057205 0.6399296648316191 C 7.318313569516393 0.6259794881199569 7.344928923693423 0.6210300242666379 7.370576981793082 0.6260987495604955 C 7.396114603097432 0.6309412100978208 7.41893142895101 0.6451259492966726 7.4345743237770945 0.6658845467300244 C 7.412280937969309 0.679363173044843 7.385848157598508 0.6842786849752045 7.360199660289731 0.6797154620011475 C 7.334662297453951 0.6748754475907212 7.311848439120604 0.660684168463039 7.296218858505758 0.6399164326715895 Z M 6.782301611189308 0.9479081895246516 C 6.7962462750242345 0.9700424623316403 6.801195905804062 0.9966724701140679 6.796135834500439 1.022339089692141 C 6.792698780932705 1.0482939715905464 6.777104680337614 1.0707621793211057 6.758056985974752 1.0863066593160848 C 6.743276684830307 1.0645312828864069 6.737707860984634 1.0377942691460453 6.742565434619892 1.0119286877887146 C 6.747403371760535 0.986387616936149 6.761574108677972 0.9635613745702656 6.782318151389346 0.9478949573646221 Z M 6.574665864042074 0.823347251084357 C 6.551717448241946 0.811621014780956 6.525312289852525 0.8085558367256105 6.500287892514703 0.8147132666649287 C 6.475468681571433 0.8211906349551992 6.453912667841303 0.8365990620373756 6.439750760378479 0.8579857380023028 C 6.462218968109038 0.8700435438294359 6.4882267786475625 0.8752570148811677 6.514128731905849 0.8683332871455874 C 6.540133234404366 0.8614227915700367 6.562601442134926 0.8458650794150281 6.574665864042074 0.8233439430443495 Z M 6.598907181216623 0.8475753360988761 C 6.6095900790103 0.8716219080347594 6.610834755706662 0.898807583771896 6.602393855384468 0.9237297251102434 C 6.593852797856257 0.9475566298209258 6.577355385539707 0.9677087096818223 6.55568433047936 0.9807867991586372 C 6.544405806616255 0.9575971980383279 6.542543325490482 0.9309415483681234 6.550487399627666 0.9064088276312672 C 6.558530738481518 0.8813387353498625 6.575852705287397 0.8602913089890949 6.598907181216623 0.8475753360988761 Z M 6.988164248892554 0.9479081895246516 C 6.974243910187421 0.9700519798626847 6.969297177415244 0.9966727613441428 6.974333333621431 1.022339089692141 C 6.979187186305547 1.047880673764563 6.99339834657613 1.0706914321402794 7.014185291591108 1.0863066593160848 C 7.027625082342105 1.0639985030986878 7.032537880657262 1.0375803149810905 7.028016206862231 1.011931995828722 C 7.02315192046637 0.986379647567222 7.008951734084362 0.9635522760356733 6.988180789092591 0.9478949573646221 Z M 7.195803304079796 0.823347251084357 C 7.216643956126693 0.8130030099810798 7.244289246468902 0.80779946304937 7.270181275607166 0.8147132666649283 C 7.295033592068806 0.8211516129160246 7.316620123669474 0.836567533638214 7.330774644423517 0.8579857380023028 C 7.308256816092846 0.8700435438294359 7.282351554794553 0.8752570148811677 7.256343744256028 0.8683332871455874 C 7.230438482957734 0.8614227915700367 7.207920654627063 0.8458650794150281 7.195806612119804 0.8233439430443495 Z M 7.17155867886524 0.8475753360988761 C 7.160956197654523 0.8716440933389832 7.159736145134953 0.898807370953113 7.168138165497542 0.9237297251102434 C 7.176737142791597 0.9480631514890966 7.193999503338046 0.9683756903555955 7.216627415926656 0.9807867991586372 C 7.227272542708447 0.957352320014711 7.2284972510860275 0.9307214272086114 7.220047929294353 0.9064088276312672 C 7.212023899430438 0.8813135106618518 7.194677745301064 0.8602530298769249 7.1715851431852995 0.8475687200188612 Z M 6.782301611189308 0.12609181047534848 C 6.796563410565382 0.10408280149060536 6.801536871058379 0.07732458506487128 6.796135834500439 0.05166091030785916 C 6.792698780932705 0.0257060284094542 6.777104680337613 0.003237820678894422 6.7580569859747515 -0.012303351276077203 C 6.744226070703629 0.010164856454482167 6.737368503768197 0.036119738352887544 6.742565434619892 0.062074620251292914 C 6.74740051689356 0.0876117718668186 6.761564931527728 0.1104361482953024 6.782301611189308 0.12610504263537836 Z M 6.574665864042073 0.2506692891156805 C 6.553974073795511 0.2627899477029552 6.527953031096957 0.26621707715066745 6.500287892514703 0.25928673333507224 C 6.475464398590524 0.25281657759253323 6.453905682419183 0.2374050407098296 6.4397507603784785 0.2160109539576902 C 6.462218968109038 0.2039564561705646 6.4882267786475625 0.19875952531886973 6.514128731905848 0.20566671285441304 C 6.540133234404366 0.21259044058999332 6.562601442134925 0.2281349205849728 6.574665864042073 0.25065605695565096 Z M 6.598907181216623 0.22642466390112398 C 6.609635604759866 0.20238886430988945 6.610881075338052 0.17518584895845304 6.602393855384467 0.1502702748897567 C 6.593853515462987 0.1264429639678148 6.577355925461359 0.10629066705931045 6.55568433047936 0.09321320084136323 C 6.545323549176045 0.1156814085719226 6.541790562448095 0.14335977931420593 6.550487399627665 0.16758786432872547 C 6.558531800885316 0.19265820889133123 6.575853363798854 0.21370632790343635 6.598907181216623 0.22642466390112398 Z M 6.988164248892553 0.12609181047534848 C 6.97433333362143 0.10533385942863754 6.96918271532984 0.07937897753023218 6.97433333362143 0.05166091030785916 C 6.9791864421751635 0.026119938702808605 6.993397843521941 0.003309973031578841 7.014185291591107 -0.012303351276077203 C 7.026239789378233 0.010164856454482167 7.033216445753933 0.036119738352887544 7.028002974702201 0.062074620251292914 C 7.023135412680244 0.08762470777179314 7.00893433571792 0.11044925694415436 6.988164248892553 0.12610504263537836 Z M 7.195803304079796 0.2506692891156805 C 7.218525401204454 0.26312540483314667 7.245213018390451 0.2662174366232876 7.2701812756071655 0.25928673333507224 C 7.2950378978693315 0.2528556696482982 7.316627164119598 0.23743661734246263 7.330774644423517 0.2160109539576902 C 7.308256816092846 0.2039564561705646 7.282351554794552 0.19875952531886973 7.256343744256028 0.20566671285441304 C 7.230438482957734 0.21259044058999332 7.207920654627063 0.2281349205849728 7.195806612119803 0.25065605695565096 Z M 7.171558678865239 0.22642466390112398 C 7.160911248663945 0.2023664472993145 7.159690432169766 0.17518616053674438 7.168138165497542 0.1502702748897567 C 7.176736047765793 0.12593621858610837 7.193998705045013 0.10562333055554601 7.216627415926656 0.09321320084136323 C 7.2272274983502705 0.1166573358299183 7.228451411345711 0.14326974963696754 7.220047929294353 0.16758786432872547 C 7.2120246377302735 0.19268441490147703 7.19467839763082 0.21374618410892218 7.1715851431852995 0.22643127998113893 Z M 7.137035973347554 0.6399296648316191 C 7.1906030651880934 0.6312956804121903 7.246002811192758 0.6399296648316191 7.294422592781715 0.6711013258217633 C 7.3412576276752795 0.7009387833155395 7.375217240892576 0.7472375831661463 7.389608135955908 0.8008724272737827 C 7.335072510197029 0.8111869391243172 7.27866077403233 0.8000190913705764 7.2321685878816275 0.7697040743236455 C 7.185365117116098 0.7398429785365497 7.151429150914735 0.693549496580939 7.137035973347554 0.6399296648316191 Z M 6.7823016111893075 0.788751768686508 C 6.792798712128496 0.8432774393983135 6.781645140043739 0.8997477375533904 6.751206035119335 0.9461880087207816 C 6.721329455421155 0.9929878001461385 6.675044956708099 1.0269360582641476 6.6214316256273085 1.0413735518949736 C 6.61194638310136 0.9868307173089317 6.623047478133907 0.9307087111169937 6.652583438377409 0.8838843832205815 C 6.682418019697595 0.8370772204051675 6.728698096751845 0.8031381038445117 6.782308227269324 0.788751768686508 Z M 6.633565516374613 0.434067027128374 C 6.579010884804834 0.44437442017411893 6.52258325435492 0.43321404389144735 6.476059807500184 0.40291521437827416 C 6.4292973694034785 0.3730096435814711 6.3953736007003785 0.3267344098729757 6.380923884926103 0.2731408048862473 C 6.434543905406762 0.2645068204668186 6.489940343371419 0.2731408048862473 6.5383634330003835 0.30429261763634713 C 6.585195978133115 0.3341378526104465 6.619158870343876 0.38043425837256967 6.633565516374613 0.434067027128374 Z M 6.9881874051726065 0.28524823131349253 C 6.9787203143773295 0.23071305820165033 6.9898456463839675 0.1746054046897362 7.019405378722855 0.12780868323921188 C 7.049244824852028 0.08100229316133786 7.095512168680454 0.047049307919840355 7.149113627414732 0.03262314006502032 C 7.159618375810094 0.08714988862948861 7.148464268278825 0.1436240843460506 7.118018051344759 0.1900626881393006 C 7.08865551491516 0.23736951105306942 7.042126699965262 0.27147957783952503 6.988177481052584 0.28524823131349253 Z M 6.633565516374613 0.6399164326715895 C 6.579015222630374 0.6304629431051438 6.522897143160261 0.6415691675154285 6.476059807500184 0.6710880936617338 C 6.429294922349606 0.700989553245548 6.3953702465954825 0.7472648446381049 6.380923884926103 0.8008591951137536 C 6.435460089067449 0.8113372934211223 6.491933039846154 0.8001573269925097 6.5383634330003835 0.7696908421636159 C 6.5851973179808025 0.7398470378874643 6.619160637320643 0.6935500498857287 6.633565516374613 0.6399164326715895 Z M 6.714850675437527 0.5378733225619656 C 6.661414506503854 0.4877637441606869 6.590880948445854 0.4599170670461412 6.5176253301937175 0.46000867686674984 C 6.444881535505324 0.45992411099853475 6.3748877068969385 0.48780084091028086 6.3221201657537796 0.5378733225619656 C 6.37552084624341 0.5867268310158522 6.445249305735897 0.6138631181279871 6.5176253301937175 0.6139582427331767 C 6.590515887600218 0.6138691277073601 6.660785384139428 0.5867608013000842 6.714850675437527 0.5378733225619656 Z M 6.988180789092591 0.7887385365264784 C 6.979543496633155 0.8423585570071377 6.988180789092591 0.8977549949717943 7.01939876264284 0.9461747765607517 C 7.049232018586526 0.9929869634364938 7.095501879425914 1.0269417957698928 7.149107011334717 1.041360319734944 C 7.159437298656407 0.9868182172813402 7.148296556036783 0.9303939114690989 7.118011435264744 0.883871151060552 C 7.088107028013461 0.8370800852203363 7.0417989108131565 0.8031506881643782 6.9881708649725685 0.7887385365264784 Z M 6.886137678982967 0.7091636341474142 C 6.835807249230518 0.7617607390113929 6.80790760503432 0.8318716741247241 6.8083391940879 0.9046687985873526 C 6.807933338499339 0.9774610676831097 6.835829282884968 1.0475627052879521 6.8861376789829665 1.1001739630272893 C 6.935282924232252 1.046949877762065 6.9624866008815856 0.9771120214580118 6.962292067994334 0.9046687985873523 C 6.962510892809405 0.8322210474285079 6.935303878671942 0.7623746230540498 6.886137678982978 0.7091636341474259 Z M 7.137052513547592 0.4340537949683449 C 7.191569584158119 0.4445263432996525 7.248022058212827 0.4333526049770767 7.294439132981753 0.4029019822182447 C 7.341271477473395 0.3730601464579172 7.375230100899979 0.3267615158530341 7.389624676155946 0.27312757272621824 C 7.335098071368261 0.2636707475401843 7.279001726742296 0.2747702637997755 7.232185128081665 0.30427938547631767 C 7.1853838886232975 0.33414286167973545 7.151448632635386 0.38043537480324097 7.137052513547592 0.4340537949683449 Z M 7.057477611168528 0.537873322561966 C 7.1106722251553345 0.5870214184173346 7.180503191947587 0.6142054178117763 7.252926538928339 0.6139582427331771 C 7.325372174377913 0.6141928071799343 7.395224550562905 0.5870119745979687 7.448458167688337 0.537873322561966 C 7.395864376280283 0.4875132444291458 7.325741841331862 0.4595890340411112 7.252926538928339 0.4600086768667503 C 7.180133277302485 0.45957605027977905 7.110031821857798 0.48750367850206 7.057477611168528 0.537873322561966 Z M 6.7823181513893465 0.28523499915346345 C 6.7926519163213515 0.23070877965304715 6.78151044673536 0.17429857092899717 6.751222575319373 0.12779545107918316 C 6.721340064754556 0.08100121928191559 6.6750579757654105 0.047054728622377334 6.6214481658273465 0.03260990790499082 L 6.6214481658273465 0.037806838756685265 L 6.619721368943461 0.03951709544053372 L 6.619721368943461 0.05341086347179852 L 6.6179614916595 0.055121120155647366 L 6.6179614916595 0.07066890819063434 L 6.6179614916595 0.07066890819063434 L 6.6179614916595 0.07757609572617684 L 6.6179614916595 0.07757609572617684 L 6.6179614916595 0.0879864976296035 L 6.6179614916595 0.0879864976296035 L 6.6179614916595 0.09144339943738064 L 6.619721368943461 0.09320658476134829 L 6.619721368943461 0.09835389501293142 L 6.619721368943461 0.09835389501293142 L 6.619721368943461 0.10013031249692897 L 6.619721368943461 0.10013031249692897 L 6.619721368943461 0.10533716746864544 L 6.6214481658273465 0.10877422103637971 L 6.6214481658273465 0.10877422103637971 L 6.6214481658273465 0.11397115188807416 L 6.6214481658273465 0.11397115188807416 L 6.6214481658273465 0.11568471661193008 L 6.623158422511195 0.11916808273976862 L 6.623158422511195 0.12260844434751036 L 6.623158422511195 0.12260844434751036 L 6.6249381480352 0.12609511851535635 L 6.6249381480352 0.1312920493670508 L 6.626592168038922 0.13300230605089966 L 6.626592168038922 0.1364327435386186 L 6.62836858552292 0.1382124690626236 L 6.62836858552292 0.13992272574647205 L 6.63007553416676 0.14335647127419884 L 6.63007553416676 0.1451163485581594 L 6.631789098890616 0.14855671016590077 L 6.631789098890616 0.15026696684974963 L 6.633565516374614 0.15204338433374717 L 6.633565516374614 0.1554638977014441 L 6.635275773058463 0.1571906945853303 L 6.635275773058463 0.16068067679318337 L 6.636986029742312 0.16238762543702434 L 6.638762447226309 0.1641640429210219 L 6.638762447226309 0.1675845562887188 L 6.640472703910158 0.16931135317260462 L 6.642182960594007 0.17280133538045808 L 6.642182960594007 0.17451159206430655 L 6.643959378078004 0.17622184874815539 L 6.645613398081726 0.1797085229160014 L 6.647393123605731 0.18141877959984984 L 6.647393123605731 0.18314557648373567 L 6.649100072249572 0.18663225065158168 L 6.650830177173465 0.1883425073354305 L 6.652586746417418 0.19005276401927898 C 6.6818803709305366 0.2373740042540739 6.72838097643943 0.27149381613506113 6.782311535309333 0.2852383071934717 Z M 6.886137678982967 0.36653669841641384 C 6.935066150899846 0.31249016163003035 6.962202042911679 0.24221219726542997 6.962292067994335 0.16930804513259753 C 6.962175292368477 0.09691533674228926 6.935014582401708 0.02717834683237918 6.886137678982979 -0.02622358362738739 C 6.836099600820554 0.026571524031606078 6.808249302408125 0.09656792842661607 6.808339194087901 0.16930804513259753 C 6.808221140633198 0.24255720908841694 6.836044825231787 0.31309364498655556 6.88613767898297 0.36653669841641545 Z" fill="#769687" transform="matrix(1,0,0,1,0,0)" fill-rule="evenodd"></path></g></g></g><defs><clipPath id="SvgjsClipPath1001"><path d=" M 6.32210693359375 -0.026210351467371495 h 1.1263512340945865 v 1.1264207029347428 h -1.1263512340945865 Z"></path></clipPath><clipPath id="SvgjsClipPath1000"><path d=" M 6.32210693359375 -0.026210351467371495 L 7.448458167688337 -0.026210351467371495 L 7.448458167688337 1.1002103514673713 L 6.32210693359375 1.1002103514673713 Z"></path></clipPath></defs></svg>